# xmcd
#
# Track frame offsets: 
#        150
#        14783
#        32128
#        47465
#        64292
#        78688
#        100826
#        116031
#        130205
#        146641
#        160006
#        182611
#        196972
#
# Disc length: 2970 seconds
#
# Revision: 1
# Processed by: cddbd v1.5.2PL0 Copyright (c) Steve Scherf et al.
# Submitted via: ExactAudioCopyFreeDBPlugin 1.0
#
DISCID=b60b980d
DTITLE=Count Basic feat. Kelli Sae - Love and Light
DYEAR=2007
DGENRE=R&B
TTITLE0=Last Man On Earth
TTITLE1=Love and Light
TTITLE2=No Visible Scars
TTITLE3=Supa Dupa
TTITLE4=Love Thang
TTITLE5=I Wanna Get Off
TTITLE6=Get By
TTITLE7=Nobody Loves Me Better
TTITLE8=Right All the Time
TTITLE9=Sun Shines On You
TTITLE10=Sir Karl
TTITLE11=People These Days
TTITLE12=Back to Nice
EXTD=
EXTT0=
EXTT1=
EXTT2=
EXTT3=
EXTT4=
EXTT5=
EXTT6=
EXTT7=
EXTT8=
EXTT9=
EXTT10=
EXTT11=
EXTT12=
PLAYORDER=
